<?xml version="1.0" encoding="UTF-8" standalone="no"?>
<!DOCTYPE svg PUBLIC "-//W3C//DTD SVG 1.1//EN" "http://www.w3.org/Graphics/SVG/1.1/DTD/svg11.dtd">
<svg width="100%" height="100%" viewBox="0 0 3600 3600" version="1.1" xmlns="http://www.w3.org/2000/svg" xmlns:xlink="http://www.w3.org/1999/xlink" xml:space="preserve" xmlns:serif="http://www.serif.com/" style="fill-rule:evenodd;clip-rule:evenodd;stroke-linejoin:round;stroke-miterlimit:2;">
    <g transform="matrix(1.00321,0,0,0.997807,-0.0961742,8.74077)">
        <ellipse cx="1794.28" cy="1795.2" rx="1764.33" ry="1773.89" style="fill:rgb(150,209,159);"/>
    </g>
    <g id="Layer1">
        <path d="M1653.77,675.55C1653.77,635.589 1621.33,603.145 1581.37,603.145L677.446,603.145C637.485,603.145 605.041,635.589 605.041,675.55L605.041,1587.55C605.041,1627.51 637.485,1659.95 677.446,1659.95L1581.37,1659.95C1621.33,1659.95 1653.77,1627.51 1653.77,1587.55L1653.77,675.55Z" style="fill:rgb(235,237,237);"/>
        <g transform="matrix(1.02468,0,0,1.01018,-30.1316,-7.4539)">
            <rect x="743.558" y="731.957" width="774.201" height="455.121" style="fill:rgb(90,98,110);"/>
        </g>
        <g transform="matrix(1.0132,0,0,1,-18.4736,0)">
            <rect x="863.797" y="1144.47" width="535.337" height="127.326" style="fill:rgb(90,98,110);"/>
        </g>
        <g transform="matrix(1.02491,0,0,1,-29.0447,0)">
            <rect x="1008.21" y="1199.01" width="239.544" height="170.674" style="fill:rgb(90,98,110);"/>
        </g>
        <g transform="matrix(1.05071,0,0,1.03516,-44.1749,-31.0059)">
            <path d="M887.284,813.863C887.284,805.5 880.595,798.711 872.356,798.711L842.499,798.711C834.26,798.711 827.57,805.5 827.57,813.863L827.57,893.779C827.57,902.142 834.26,908.931 842.499,908.931L872.356,908.931C880.595,908.931 887.284,902.142 887.284,893.779L887.284,813.863Z" style="fill:rgb(244,202,80);"/>
        </g>
        <g transform="matrix(1.05071,0,0,1.03516,134.274,-31.0059)">
            <path d="M887.284,813.863C887.284,805.5 880.595,798.711 872.356,798.711L842.499,798.711C834.26,798.711 827.57,805.5 827.57,813.863L827.57,893.779C827.57,902.142 834.26,908.931 842.499,908.931L872.356,908.931C880.595,908.931 887.284,902.142 887.284,893.779L887.284,813.863Z" style="fill:rgb(244,202,80);"/>
        </g>
        <g transform="matrix(1.05071,0,0,1.03516,316.438,-31.0059)">
            <path d="M887.284,813.863C887.284,805.5 880.595,798.711 872.356,798.711L842.499,798.711C834.26,798.711 827.57,805.5 827.57,813.863L827.57,893.779C827.57,902.142 834.26,908.931 842.499,908.931L872.356,908.931C880.595,908.931 887.284,902.142 887.284,893.779L887.284,813.863Z" style="fill:rgb(244,202,80);"/>
        </g>
        <g transform="matrix(1.05071,0,0,1.03516,498.23,-31.0059)">
            <path d="M887.284,813.863C887.284,805.5 880.595,798.711 872.356,798.711L842.499,798.711C834.26,798.711 827.57,805.5 827.57,813.863L827.57,893.779C827.57,902.142 834.26,908.931 842.499,908.931L872.356,908.931C880.595,908.931 887.284,902.142 887.284,893.779L887.284,813.863Z" style="fill:rgb(244,202,80);"/>
        </g>
    </g>
    <g id="Layer11" serif:id="Layer1" transform="matrix(1,0,0,1,1339.23,0)">
        <path d="M1653.77,675.55C1653.77,635.589 1621.33,603.145 1581.37,603.145L677.446,603.145C637.485,603.145 605.041,635.589 605.041,675.55L605.041,1587.55C605.041,1627.51 637.485,1659.95 677.446,1659.95L1581.37,1659.95C1621.33,1659.95 1653.77,1627.51 1653.77,1587.55L1653.77,675.55Z" style="fill:rgb(235,237,237);"/>
        <g transform="matrix(1.02468,0,0,1.01018,-30.1316,-7.4539)">
            <rect x="743.558" y="731.957" width="774.201" height="455.121" style="fill:rgb(90,98,110);"/>
        </g>
        <g transform="matrix(1.0132,0,0,1,-18.4736,0)">
            <rect x="863.797" y="1144.47" width="535.337" height="127.326" style="fill:rgb(90,98,110);"/>
        </g>
        <g transform="matrix(1.02491,0,0,1,-29.0447,0)">
            <rect x="1008.21" y="1199.01" width="239.544" height="170.674" style="fill:rgb(90,98,110);"/>
        </g>
        <g transform="matrix(1.05071,0,0,1.03516,-44.1749,-31.0059)">
            <path d="M887.284,813.863C887.284,805.5 880.595,798.711 872.356,798.711L842.499,798.711C834.26,798.711 827.57,805.5 827.57,813.863L827.57,893.779C827.57,902.142 834.26,908.931 842.499,908.931L872.356,908.931C880.595,908.931 887.284,902.142 887.284,893.779L887.284,813.863Z" style="fill:rgb(244,202,80);"/>
        </g>
        <g transform="matrix(1.05071,0,0,1.03516,134.274,-31.0059)">
            <path d="M887.284,813.863C887.284,805.5 880.595,798.711 872.356,798.711L842.499,798.711C834.26,798.711 827.57,805.5 827.57,813.863L827.57,893.779C827.57,902.142 834.26,908.931 842.499,908.931L872.356,908.931C880.595,908.931 887.284,902.142 887.284,893.779L887.284,813.863Z" style="fill:rgb(244,202,80);"/>
        </g>
        <g transform="matrix(1.05071,0,0,1.03516,316.438,-31.0059)">
            <path d="M887.284,813.863C887.284,805.5 880.595,798.711 872.356,798.711L842.499,798.711C834.26,798.711 827.57,805.5 827.57,813.863L827.57,893.779C827.57,902.142 834.26,908.931 842.499,908.931L872.356,908.931C880.595,908.931 887.284,902.142 887.284,893.779L887.284,813.863Z" style="fill:rgb(244,202,80);"/>
        </g>
        <g transform="matrix(1.05071,0,0,1.03516,498.23,-31.0059)">
            <path d="M887.284,813.863C887.284,805.5 880.595,798.711 872.356,798.711L842.499,798.711C834.26,798.711 827.57,805.5 827.57,813.863L827.57,893.779C827.57,902.142 834.26,908.931 842.499,908.931L872.356,908.931C880.595,908.931 887.284,902.142 887.284,893.779L887.284,813.863Z" style="fill:rgb(244,202,80);"/>
        </g>
    </g>
    <g id="Layer12" serif:id="Layer1" transform="matrix(1.30873,0,0,1.30873,305.392,1147.72)">
        <path d="M1653.77,675.55C1653.77,635.589 1621.33,603.145 1581.37,603.145L677.446,603.145C637.485,603.145 605.041,635.589 605.041,675.55L605.041,1587.55C605.041,1627.51 637.485,1659.95 677.446,1659.95L1581.37,1659.95C1621.33,1659.95 1653.77,1627.51 1653.77,1587.55L1653.77,675.55Z" style="fill:rgb(235,237,237);"/>
        <g transform="matrix(1.02468,0,0,1.01018,-30.1316,-7.4539)">
            <rect x="743.558" y="731.957" width="774.201" height="455.121" style="fill:rgb(90,98,110);"/>
        </g>
        <g transform="matrix(1.0132,0,0,1,-18.4736,0)">
            <rect x="863.797" y="1144.47" width="535.337" height="127.326" style="fill:rgb(90,98,110);"/>
        </g>
        <g transform="matrix(1.02491,0,0,1,-29.0447,0)">
            <rect x="1008.21" y="1199.01" width="239.544" height="170.674" style="fill:rgb(90,98,110);"/>
        </g>
        <g transform="matrix(1.05071,0,0,1.03516,-44.1749,-31.0059)">
            <path d="M887.284,813.863C887.284,805.5 880.595,798.711 872.356,798.711L842.499,798.711C834.26,798.711 827.57,805.5 827.57,813.863L827.57,893.779C827.57,902.142 834.26,908.931 842.499,908.931L872.356,908.931C880.595,908.931 887.284,902.142 887.284,893.779L887.284,813.863Z" style="fill:rgb(244,202,80);"/>
        </g>
        <g transform="matrix(1.05071,0,0,1.03516,134.274,-31.0059)">
            <path d="M887.284,813.863C887.284,805.5 880.595,798.711 872.356,798.711L842.499,798.711C834.26,798.711 827.57,805.5 827.57,813.863L827.57,893.779C827.57,902.142 834.26,908.931 842.499,908.931L872.356,908.931C880.595,908.931 887.284,902.142 887.284,893.779L887.284,813.863Z" style="fill:rgb(244,202,80);"/>
        </g>
        <g transform="matrix(1.05071,0,0,1.03516,316.438,-31.0059)">
            <path d="M887.284,813.863C887.284,805.5 880.595,798.711 872.356,798.711L842.499,798.711C834.26,798.711 827.57,805.5 827.57,813.863L827.57,893.779C827.57,902.142 834.26,908.931 842.499,908.931L872.356,908.931C880.595,908.931 887.284,902.142 887.284,893.779L887.284,813.863Z" style="fill:rgb(244,202,80);"/>
        </g>
        <g transform="matrix(1.05071,0,0,1.03516,498.23,-31.0059)">
            <path d="M887.284,813.863C887.284,805.5 880.595,798.711 872.356,798.711L842.499,798.711C834.26,798.711 827.57,805.5 827.57,813.863L827.57,893.779C827.57,902.142 834.26,908.931 842.499,908.931L872.356,908.931C880.595,908.931 887.284,902.142 887.284,893.779L887.284,813.863Z" style="fill:rgb(244,202,80);"/>
        </g>
    </g>
</svg>
