<?xml version="1.0" encoding="UTF-8" standalone="no"?>
<!DOCTYPE svg PUBLIC "-//W3C//DTD SVG 1.1//EN" "http://www.w3.org/Graphics/SVG/1.1/DTD/svg11.dtd">
<svg width="100%" height="100%" viewBox="0 0 3600 3600" version="1.1" xmlns="http://www.w3.org/2000/svg" xmlns:xlink="http://www.w3.org/1999/xlink" xml:space="preserve" xmlns:serif="http://www.serif.com/" style="fill-rule:evenodd;clip-rule:evenodd;stroke-linejoin:round;stroke-miterlimit:2;">
    <g transform="matrix(1.00321,0,0,0.997807,-0.0961742,8.74077)">
        <ellipse cx="1794.28" cy="1795.2" rx="1764.33" ry="1773.89" style="fill:rgb(150,209,159);"/>
    </g>
    <g id="Layer1">
        <path d="M1653.77,675.55C1653.77,635.589 1621.33,603.145 1581.37,603.145L677.446,603.145C637.485,603.145 605.041,635.589 605.041,675.55L605.041,1587.55C605.041,1627.51 637.485,1659.95 677.446,1659.95L1581.37,1659.95C1621.33,1659.95 1653.77,1627.51 1653.77,1587.55L1653.77,675.55Z" style="fill:rgb(235,237,237);"/>
        <g transform="matrix(3.10418,0,0,1.45227,-1505.77,-376.973)">
            <path d="M976.379,791.675C976.379,776.172 970.491,763.586 963.238,763.586L733.959,763.586C726.706,763.586 720.818,776.172 720.818,791.675L720.818,1052.08C720.818,1067.58 726.706,1080.16 733.959,1080.16L963.238,1080.16C970.491,1080.16 976.379,1067.58 976.379,1052.08L976.379,791.675Z" style="fill:rgb(90,98,110);"/>
        </g>
        <g transform="matrix(4.4596,0,0,2,-2963.94,-1144.47)">
            <path d="M978.355,1160.38C978.355,1151.6 975.157,1144.47 971.217,1144.47L863.866,1144.47C859.927,1144.47 856.728,1151.6 856.728,1160.38L856.728,1192.21C856.728,1201 859.927,1208.13 863.866,1208.13L971.217,1208.13C975.157,1208.13 978.355,1201 978.355,1192.21L978.355,1160.38Z" style="fill:rgb(90,98,110);"/>
        </g>
        <g transform="matrix(0.934866,0,0,1.05923,44.8681,-121.139)">
            <path d="M1288.88,1293.07C1288.88,1272.03 1269.52,1254.94 1245.68,1254.94L1069.46,1254.94C1045.62,1254.94 1026.26,1272.03 1026.26,1293.07L1026.26,1369.33C1026.26,1390.37 1045.62,1407.46 1069.46,1407.46L1245.68,1407.46C1269.52,1407.46 1288.88,1390.37 1288.88,1369.33L1288.88,1293.07Z" style="fill:rgb(90,98,110);"/>
        </g>
        <g transform="matrix(1.05071,0,0,1.03516,-44.1749,-31.0059)">
            <path d="M887.284,813.863C887.284,805.5 880.595,798.711 872.356,798.711L842.499,798.711C834.26,798.711 827.57,805.5 827.57,813.863L827.57,893.779C827.57,902.142 834.26,908.931 842.499,908.931L872.356,908.931C880.595,908.931 887.284,902.142 887.284,893.779L887.284,813.863Z" style="fill:rgb(244,202,80);"/>
        </g>
        <g transform="matrix(1.05071,0,0,1.03516,134.274,-31.0059)">
            <path d="M887.284,813.863C887.284,805.5 880.595,798.711 872.356,798.711L842.499,798.711C834.26,798.711 827.57,805.5 827.57,813.863L827.57,893.779C827.57,902.142 834.26,908.931 842.499,908.931L872.356,908.931C880.595,908.931 887.284,902.142 887.284,893.779L887.284,813.863Z" style="fill:rgb(244,202,80);"/>
        </g>
        <g transform="matrix(1.05071,0,0,1.03516,316.438,-31.0059)">
            <path d="M887.284,813.863C887.284,805.5 880.595,798.711 872.356,798.711L842.499,798.711C834.26,798.711 827.57,805.5 827.57,813.863L827.57,893.779C827.57,902.142 834.26,908.931 842.499,908.931L872.356,908.931C880.595,908.931 887.284,902.142 887.284,893.779L887.284,813.863Z" style="fill:rgb(244,202,80);"/>
        </g>
        <g transform="matrix(1.05071,0,0,1.03516,498.23,-31.0059)">
            <path d="M887.284,813.863C887.284,805.5 880.595,798.711 872.356,798.711L842.499,798.711C834.26,798.711 827.57,805.5 827.57,813.863L827.57,893.779C827.57,902.142 834.26,908.931 842.499,908.931L872.356,908.931C880.595,908.931 887.284,902.142 887.284,893.779L887.284,813.863Z" style="fill:rgb(244,202,80);"/>
        </g>
    </g>
    <g id="Layer11" serif:id="Layer1" transform="matrix(1,0,0,1,1339.23,0)">
        <path d="M1653.77,675.55C1653.77,635.589 1621.33,603.145 1581.37,603.145L677.446,603.145C637.485,603.145 605.041,635.589 605.041,675.55L605.041,1587.55C605.041,1627.51 637.485,1659.95 677.446,1659.95L1581.37,1659.95C1621.33,1659.95 1653.77,1627.51 1653.77,1587.55L1653.77,675.55Z" style="fill:rgb(235,237,237);"/>
        <g transform="matrix(3.10418,0,0,1.45227,-1503.7,-376.973)">
            <path d="M976.379,791.675C976.379,776.172 970.491,763.586 963.238,763.586L733.959,763.586C726.706,763.586 720.818,776.172 720.818,791.675L720.818,1052.08C720.818,1067.58 726.706,1080.16 733.959,1080.16L963.238,1080.16C970.491,1080.16 976.379,1067.58 976.379,1052.08L976.379,791.675Z" style="fill:rgb(90,98,110);"/>
        </g>
        <g transform="matrix(4.4596,0,0,2,-2961.87,-1144.47)">
            <path d="M978.355,1160.38C978.355,1151.6 975.157,1144.47 971.217,1144.47L863.866,1144.47C859.927,1144.47 856.728,1151.6 856.728,1160.38L856.728,1192.21C856.728,1201 859.927,1208.13 863.866,1208.13L971.217,1208.13C975.157,1208.13 978.355,1201 978.355,1192.21L978.355,1160.38Z" style="fill:rgb(90,98,110);"/>
        </g>
        <g transform="matrix(0.934866,0,0,1.05923,46.9379,-121.139)">
            <path d="M1288.88,1293.07C1288.88,1272.03 1269.52,1254.94 1245.68,1254.94L1069.46,1254.94C1045.62,1254.94 1026.26,1272.03 1026.26,1293.07L1026.26,1369.33C1026.26,1390.37 1045.62,1407.46 1069.46,1407.46L1245.68,1407.46C1269.52,1407.46 1288.88,1390.37 1288.88,1369.33L1288.88,1293.07Z" style="fill:rgb(90,98,110);"/>
        </g>
        <g transform="matrix(1.05071,0,0,1.03516,-44.1749,-31.0059)">
            <path d="M887.284,813.863C887.284,805.5 880.595,798.711 872.356,798.711L842.499,798.711C834.26,798.711 827.57,805.5 827.57,813.863L827.57,893.779C827.57,902.142 834.26,908.931 842.499,908.931L872.356,908.931C880.595,908.931 887.284,902.142 887.284,893.779L887.284,813.863Z" style="fill:rgb(244,202,80);"/>
        </g>
        <g transform="matrix(1.05071,0,0,1.03516,134.274,-31.0059)">
            <path d="M887.284,813.863C887.284,805.5 880.595,798.711 872.356,798.711L842.499,798.711C834.26,798.711 827.57,805.5 827.57,813.863L827.57,893.779C827.57,902.142 834.26,908.931 842.499,908.931L872.356,908.931C880.595,908.931 887.284,902.142 887.284,893.779L887.284,813.863Z" style="fill:rgb(244,202,80);"/>
        </g>
        <g transform="matrix(1.05071,0,0,1.03516,316.438,-31.0059)">
            <path d="M887.284,813.863C887.284,805.5 880.595,798.711 872.356,798.711L842.499,798.711C834.26,798.711 827.57,805.5 827.57,813.863L827.57,893.779C827.57,902.142 834.26,908.931 842.499,908.931L872.356,908.931C880.595,908.931 887.284,902.142 887.284,893.779L887.284,813.863Z" style="fill:rgb(244,202,80);"/>
        </g>
        <g transform="matrix(1.05071,0,0,1.03516,498.23,-31.0059)">
            <path d="M887.284,813.863C887.284,805.5 880.595,798.711 872.356,798.711L842.499,798.711C834.26,798.711 827.57,805.5 827.57,813.863L827.57,893.779C827.57,902.142 834.26,908.931 842.499,908.931L872.356,908.931C880.595,908.931 887.284,902.142 887.284,893.779L887.284,813.863Z" style="fill:rgb(244,202,80);"/>
        </g>
    </g>
    <g id="Layer12" serif:id="Layer1" transform="matrix(1.30873,0,0,1.30873,305.392,1147.72)">
        <path d="M1653.77,675.55C1653.77,635.589 1621.33,603.145 1581.37,603.145L677.446,603.145C637.485,603.145 605.041,635.589 605.041,675.55L605.041,1587.55C605.041,1627.51 637.485,1659.95 677.446,1659.95L1581.37,1659.95C1621.33,1659.95 1653.77,1627.51 1653.77,1587.55L1653.77,675.55Z" style="fill:rgb(235,237,237);"/>
        <g transform="matrix(3.10418,0,0,1.45227,-1505.77,-376.973)">
            <path d="M976.379,791.675C976.379,776.172 970.491,763.586 963.238,763.586L733.959,763.586C726.706,763.586 720.818,776.172 720.818,791.675L720.818,1052.08C720.818,1067.58 726.706,1080.16 733.959,1080.16L963.238,1080.16C970.491,1080.16 976.379,1067.58 976.379,1052.08L976.379,791.675Z" style="fill:rgb(90,98,110);"/>
        </g>
        <g transform="matrix(4.4596,0,0,2,-2963.94,-1144.47)">
            <path d="M978.355,1160.38C978.355,1151.6 975.157,1144.47 971.217,1144.47L863.866,1144.47C859.927,1144.47 856.728,1151.6 856.728,1160.38L856.728,1192.21C856.728,1201 859.927,1208.13 863.866,1208.13L971.217,1208.13C975.157,1208.13 978.355,1201 978.355,1192.21L978.355,1160.38Z" style="fill:rgb(90,98,110);"/>
        </g>
        <g transform="matrix(0.934866,0,0,1.05923,44.8681,-121.139)">
            <path d="M1288.88,1293.07C1288.88,1272.03 1269.52,1254.94 1245.68,1254.94L1069.46,1254.94C1045.62,1254.94 1026.26,1272.03 1026.26,1293.07L1026.26,1369.33C1026.26,1390.37 1045.62,1407.46 1069.46,1407.46L1245.68,1407.46C1269.52,1407.46 1288.88,1390.37 1288.88,1369.33L1288.88,1293.07Z" style="fill:rgb(90,98,110);"/>
        </g>
        <g transform="matrix(1.05071,0,0,1.03516,-44.1749,-31.0059)">
            <path d="M887.284,813.863C887.284,805.5 880.595,798.711 872.356,798.711L842.499,798.711C834.26,798.711 827.57,805.5 827.57,813.863L827.57,893.779C827.57,902.142 834.26,908.931 842.499,908.931L872.356,908.931C880.595,908.931 887.284,902.142 887.284,893.779L887.284,813.863Z" style="fill:rgb(244,202,80);"/>
        </g>
        <g transform="matrix(1.05071,0,0,1.03516,134.274,-31.0059)">
            <path d="M887.284,813.863C887.284,805.5 880.595,798.711 872.356,798.711L842.499,798.711C834.26,798.711 827.57,805.5 827.57,813.863L827.57,893.779C827.57,902.142 834.26,908.931 842.499,908.931L872.356,908.931C880.595,908.931 887.284,902.142 887.284,893.779L887.284,813.863Z" style="fill:rgb(244,202,80);"/>
        </g>
        <g transform="matrix(1.05071,0,0,1.03516,316.438,-31.0059)">
            <path d="M887.284,813.863C887.284,805.5 880.595,798.711 872.356,798.711L842.499,798.711C834.26,798.711 827.57,805.5 827.57,813.863L827.57,893.779C827.57,902.142 834.26,908.931 842.499,908.931L872.356,908.931C880.595,908.931 887.284,902.142 887.284,893.779L887.284,813.863Z" style="fill:rgb(244,202,80);"/>
        </g>
        <g transform="matrix(1.05071,0,0,1.03516,498.23,-31.0059)">
            <path d="M887.284,813.863C887.284,805.5 880.595,798.711 872.356,798.711L842.499,798.711C834.26,798.711 827.57,805.5 827.57,813.863L827.57,893.779C827.57,902.142 834.26,908.931 842.499,908.931L872.356,908.931C880.595,908.931 887.284,902.142 887.284,893.779L887.284,813.863Z" style="fill:rgb(244,202,80);"/>
        </g>
    </g>
</svg>
